<svg width="122" height="32" viewBox="0 0 122 32" fill="none" xmlns="http://www.w3.org/2000/svg">
<path d="M16 31L1 16L16 1" stroke="#2E2E2E" stroke-linecap="round" stroke-linejoin="round"/>
<path d="M47.4574 11.3684V11.3819H49.8054V11.3684C49.8054 9.1958 51.5327 7.54949 53.8132 7.54949C55.9588 7.54949 57.6726 9.04736 57.6726 10.9231C57.6726 12.5424 57.0518 13.5815 54.4339 16.3343L47.5788 23.5538V25.2271H60.4254V23.068H50.9389V23.014L55.8643 17.9266C59.1165 14.5665 60.1016 12.9472 60.1016 10.7746C60.1016 7.79239 57.3622 5.43089 53.8807 5.43089C50.2102 5.43089 47.4574 7.96782 47.4574 11.3684Z" fill="#B0B0B0"/>
<path d="M62.9233 27.8435L67.2784 12.9288H66.0085L61.6534 27.8435H62.9233ZM74.1222 25.2271H75.6051V22.6702H77.3437V21.3236H75.6051V12.9288H73.3381C70.4318 17.0964 68.9915 19.3378 67.9432 21.281V22.6702H74.1222V25.2271ZM69.4602 21.2896C70.4318 19.585 71.7699 17.531 74.0966 14.2072H74.1222V21.3236H69.4602V21.2896Z" fill="#2E2E2E"/>
<path d="M106 31L121 16L106 1" stroke="#2E2E2E" stroke-linecap="round" stroke-linejoin="round"/>
</svg>
