<svg width="35" height="35" viewBox="0 0 35 35" fill="none" xmlns="http://www.w3.org/2000/svg">
<circle cx="17.5" cy="17.5" r="17" stroke="#BEBEBE"/>
<path d="M11 17.5C10.7239 17.5 10.5 17.7239 10.5 18C10.5 18.2761 10.7239 18.5 11 18.5L11 17.5ZM24.3536 18.3536C24.5488 18.1583 24.5488 17.8417 24.3536 17.6464L21.1716 14.4645C20.9763 14.2692 20.6597 14.2692 20.4645 14.4645C20.2692 14.6597 20.2692 14.9763 20.4645 15.1716L23.2929 18L20.4645 20.8284C20.2692 21.0237 20.2692 21.3403 20.4645 21.5355C20.6597 21.7308 20.9763 21.7308 21.1716 21.5355L24.3536 18.3536ZM11 18.5L24 18.5L24 17.5L11 17.5L11 18.5Z" fill="black"/>
</svg>
